<?xml version="1.0" encoding="UTF-8" standalone="no"?>
<!DOCTYPE svg PUBLIC "-//W3C//DTD SVG 1.1//EN"
 "http://www.w3.org/Graphics/SVG/1.1/DTD/svg11.dtd">
<!-- Generated by graphviz version 2.38.0 (20140413.2041)
 -->
<!-- Title: test01 Pages: 1 -->
<svg width="196pt" height="389pt"
 viewBox="0.00 0.00 196.14 388.98" xmlns="http://www.w3.org/2000/svg" xmlns:xlink="http://www.w3.org/1999/xlink">
<g id="graph0" class="graph" transform="scale(1 1) rotate(0) translate(4 384.976)">
<title>test01</title>
<polygon fill="white" stroke="none" points="-4,4 -4,-384.976 192.142,-384.976 192.142,4 -4,4"/>
<!-- _long -->
<g id="node1" class="node"><title>_long</title>
<ellipse fill="none" stroke="black" cx="108.296" cy="-253.334" rx="30.5947" ry="30.5947"/>
<text text-anchor="middle" x="108.296" y="-249.634" font-family="Times,serif" font-size="14.00">_long</text>
</g>
<!-- long_ -->
<g id="node2" class="node"><title>long_</title>
<ellipse fill="none" stroke="black" cx="108.296" cy="-156.239" rx="30.5947" ry="30.5947"/>
<text text-anchor="middle" x="108.296" y="-152.539" font-family="Times,serif" font-size="14.00">long_</text>
</g>
<!-- _long&#45;&gt;long_ -->
<g id="edge1" class="edge"><title>_long&#45;&gt;long_</title>
<path fill="none" stroke="black" d="M95.9862,-225.338C94.7985,-215.701 94.5,-204.67 95.0908,-194.332"/>
<polygon fill="black" stroke="black" points="98.5831,-194.572 95.9779,-184.303 91.6103,-193.955 98.5831,-194.572"/>
</g>
<!-- _long&#45;&gt;long_ -->
<g id="edge2" class="edge"><title>_long&#45;&gt;long_</title>
<path fill="none" stroke="black" d="M108.296,-222.767C108.296,-214.627 108.296,-205.662 108.296,-197.046"/>
<polygon fill="black" stroke="black" points="111.797,-196.788 108.296,-186.788 104.797,-196.788 111.797,-196.788"/>
</g>
<!-- _long&#45;&gt;long_ -->
<g id="edge3" class="edge"><title>_long&#45;&gt;long_</title>
<path fill="none" stroke="black" d="M120.607,-225.338C121.794,-215.701 122.093,-204.67 121.502,-194.332"/>
<polygon fill="black" stroke="black" points="124.983,-193.955 120.615,-184.303 118.01,-194.572 124.983,-193.955"/>
</g>
<!-- ong_lon -->
<g id="node3" class="node"><title>ong_lon</title>
<ellipse fill="none" stroke="black" cx="40.2964" cy="-44.846" rx="40.0939" ry="40.0939"/>
<text text-anchor="middle" x="40.2964" y="-41.146" font-family="Times,serif" font-size="14.00">ong_lon</text>
</g>
<!-- long_&#45;&gt;ong_lon -->
<g id="edge8" class="edge"><title>long_&#45;&gt;ong_lon</title>
<path fill="none" stroke="black" d="M88.6141,-132.573C80.1514,-120.549 70.3403,-105.338 61.7207,-91.0231"/>
<polygon fill="black" stroke="black" points="64.6389,-89.0822 56.5304,-82.2629 58.6166,-92.6503 64.6389,-89.0822"/>
</g>
<!-- long_&#45;&gt;ong_lon -->
<g id="edge9" class="edge"><title>long_&#45;&gt;ong_lon</title>
<path fill="none" stroke="black" d="M97.0895,-127.635C89.9014,-114.74 80.3995,-99.1588 71.1822,-85.0696"/>
<polygon fill="black" stroke="black" points="73.9542,-82.9172 65.5031,-76.5273 68.1248,-86.7927 73.9542,-82.9172"/>
</g>
<!-- ong_time -->
<g id="node5" class="node"><title>ong_time</title>
<ellipse fill="none" stroke="black" cx="143.296" cy="-44.846" rx="44.6926" ry="44.6926"/>
<text text-anchor="middle" x="143.296" y="-41.146" font-family="Times,serif" font-size="14.00">ong_time</text>
</g>
<!-- long_&#45;&gt;ong_time -->
<g id="edge7" class="edge"><title>long_&#45;&gt;ong_time</title>
<path fill="none" stroke="black" d="M117.401,-126.783C120.287,-117.764 123.571,-107.497 126.81,-97.3758"/>
<polygon fill="black" stroke="black" points="130.172,-98.3525 129.886,-87.7615 123.505,-96.2193 130.172,-98.3525"/>
</g>
<!-- ong_lon&#45;&gt;_long -->
<g id="edge4" class="edge"><title>ong_lon&#45;&gt;_long</title>
<path fill="none" stroke="black" d="M36.8842,-85.1679C39.2131,-114.03 46.4197,-153.785 59.2964,-186.787 64.355,-199.751 71.9393,-213.042 79.7586,-224.237"/>
<polygon fill="black" stroke="black" points="76.9914,-226.382 85.7459,-232.349 82.6236,-222.225 76.9914,-226.382"/>
</g>
<!-- ong_lon&#45;&gt;_long -->
<g id="edge5" class="edge"><title>ong_lon&#45;&gt;_long</title>
<path fill="none" stroke="black" d="M51.5286,-83.6537C56.9611,-112.628 64.193,-153.204 77.2964,-186.787 81.1489,-196.66 86.4662,-206.722 91.6974,-215.904"/>
<polygon fill="black" stroke="black" points="88.7902,-217.868 96.8426,-224.753 94.8416,-214.349 88.7902,-217.868"/>
</g>
<!-- a_lon -->
<g id="node4" class="node"><title>a_lon</title>
<ellipse fill="none" stroke="black" cx="108.296" cy="-350.428" rx="30.5947" ry="30.5947"/>
<text text-anchor="middle" x="108.296" y="-346.728" font-family="Times,serif" font-size="14.00">a_lon</text>
</g>
<!-- a_lon&#45;&gt;_long -->
<g id="edge6" class="edge"><title>a_lon&#45;&gt;_long</title>
<path fill="none" stroke="black" d="M108.296,-319.861C108.296,-311.721 108.296,-302.757 108.296,-294.141"/>
<polygon fill="black" stroke="black" points="111.797,-293.883 108.296,-283.883 104.797,-293.883 111.797,-293.883"/>
</g>
</g>
</svg>
