<?xml version="1.0" encoding="UTF-8" standalone="no"?>
<!DOCTYPE svg PUBLIC "-//W3C//DTD SVG 1.1//EN"
 "http://www.w3.org/Graphics/SVG/1.1/DTD/svg11.dtd">
<!-- Generated by graphviz version 2.38.0 (20140413.2041)
 -->
<!-- Title: test01 Pages: 1 -->
<svg width="168pt" height="408pt"
 viewBox="0.00 0.00 167.84 408.47" xmlns="http://www.w3.org/2000/svg" xmlns:xlink="http://www.w3.org/1999/xlink">
<g id="graph0" class="graph" transform="scale(1 1) rotate(0) translate(4 404.474)">
<title>test01</title>
<polygon fill="white" stroke="none" points="-4,4 -4,-404.474 163.844,-404.474 163.844,4 -4,4"/>
<!-- ong_lon -->
<g id="node1" class="node"><title>ong_lon</title>
<ellipse fill="none" stroke="black" cx="119.547" cy="-360.178" rx="40.0939" ry="40.0939"/>
<text text-anchor="middle" x="119.547" y="-356.478" font-family="Times,serif" font-size="14.00">ong_lon</text>
</g>
<!-- _long -->
<g id="node2" class="node"><title>_long</title>
<ellipse fill="none" stroke="black" cx="51.5473" cy="-253.334" rx="30.5947" ry="30.5947"/>
<text text-anchor="middle" x="51.5473" y="-249.634" font-family="Times,serif" font-size="14.00">_long</text>
</g>
<!-- ong_lon&#45;&gt;_long -->
<g id="edge1" class="edge"><title>ong_lon&#45;&gt;_long</title>
<path fill="none" stroke="black" d="M93.6929,-328.852C85.28,-316.881 76.2053,-303.027 68.5734,-290.536"/>
<polygon fill="black" stroke="black" points="71.4404,-288.511 63.3013,-281.728 65.4341,-292.106 71.4404,-288.511"/>
</g>
<!-- ong_lon&#45;&gt;_long -->
<g id="edge2" class="edge"><title>ong_lon&#45;&gt;_long</title>
<path fill="none" stroke="black" d="M102.774,-323.39C95.1462,-310.883 86.0413,-296.967 77.5874,-284.924"/>
<polygon fill="black" stroke="black" points="80.2454,-282.624 71.5772,-276.532 74.5543,-286.699 80.2454,-282.624"/>
</g>
<!-- long_ -->
<g id="node4" class="node"><title>long_</title>
<ellipse fill="none" stroke="black" cx="51.5473" cy="-156.239" rx="30.5947" ry="30.5947"/>
<text text-anchor="middle" x="51.5473" y="-152.539" font-family="Times,serif" font-size="14.00">long_</text>
</g>
<!-- _long&#45;&gt;long_ -->
<g id="edge7" class="edge"><title>_long&#45;&gt;long_</title>
<path fill="none" stroke="black" d="M39.2371,-225.338C38.0494,-215.701 37.7509,-204.67 38.3416,-194.332"/>
<polygon fill="black" stroke="black" points="41.834,-194.572 39.2288,-184.303 34.8612,-193.955 41.834,-194.572"/>
</g>
<!-- _long&#45;&gt;long_ -->
<g id="edge8" class="edge"><title>_long&#45;&gt;long_</title>
<path fill="none" stroke="black" d="M51.5473,-222.767C51.5473,-214.627 51.5473,-205.662 51.5473,-197.046"/>
<polygon fill="black" stroke="black" points="55.0474,-196.788 51.5473,-186.788 48.0474,-196.788 55.0474,-196.788"/>
</g>
<!-- _long&#45;&gt;long_ -->
<g id="edge9" class="edge"><title>_long&#45;&gt;long_</title>
<path fill="none" stroke="black" d="M63.8575,-225.338C65.0452,-215.701 65.3437,-204.67 64.7529,-194.332"/>
<polygon fill="black" stroke="black" points="68.2334,-193.955 63.8658,-184.303 61.2606,-194.572 68.2334,-193.955"/>
</g>
<!-- a_lon -->
<g id="node3" class="node"><title>a_lon</title>
<ellipse fill="none" stroke="black" cx="30.5473" cy="-360.178" rx="30.5947" ry="30.5947"/>
<text text-anchor="middle" x="30.5473" y="-356.478" font-family="Times,serif" font-size="14.00">a_lon</text>
</g>
<!-- a_lon&#45;&gt;_long -->
<g id="edge3" class="edge"><title>a_lon&#45;&gt;_long</title>
<path fill="none" stroke="black" d="M36.397,-329.973C38.6725,-318.612 41.3132,-305.428 43.7464,-293.28"/>
<polygon fill="black" stroke="black" points="47.1968,-293.875 45.729,-283.382 40.3331,-292.5 47.1968,-293.875"/>
</g>
<!-- long_&#45;&gt;ong_lon -->
<g id="edge5" class="edge"><title>long_&#45;&gt;ong_lon</title>
<path fill="none" stroke="black" d="M62.958,-184.837C69.6208,-196.141 77.3688,-209.638 82.5473,-222.787 93.7404,-251.206 100.706,-284.799 105.972,-311.535"/>
<polygon fill="black" stroke="black" points="102.552,-312.282 107.912,-321.42 109.42,-310.934 102.552,-312.282"/>
</g>
<!-- long_&#45;&gt;ong_lon -->
<g id="edge6" class="edge"><title>long_&#45;&gt;ong_lon</title>
<path fill="none" stroke="black" d="M74.0608,-177.239C83.8232,-189.754 94.1475,-206.537 100.547,-222.787 111.496,-250.584 118.399,-283.332 121.598,-309.771"/>
<polygon fill="black" stroke="black" points="118.142,-310.365 122.677,-319.939 125.102,-309.626 118.142,-310.365"/>
</g>
<!-- ong_time -->
<g id="node5" class="node"><title>ong_time</title>
<ellipse fill="none" stroke="black" cx="51.5473" cy="-44.846" rx="44.6926" ry="44.6926"/>
<text text-anchor="middle" x="51.5473" y="-41.146" font-family="Times,serif" font-size="14.00">ong_time</text>
</g>
<!-- long_&#45;&gt;ong_time -->
<g id="edge4" class="edge"><title>long_&#45;&gt;ong_time</title>
<path fill="none" stroke="black" d="M51.5473,-125.636C51.5473,-117.722 51.5473,-108.914 51.5473,-100.121"/>
<polygon fill="black" stroke="black" points="55.0474,-99.859 51.5473,-89.859 48.0474,-99.859 55.0474,-99.859"/>
</g>
</g>
</svg>
