<?xml version="1.0" encoding="UTF-8" standalone="no"?>
<!DOCTYPE svg PUBLIC "-//W3C//DTD SVG 1.1//EN"
 "http://www.w3.org/Graphics/SVG/1.1/DTD/svg11.dtd">
<!-- Generated by graphviz version 2.38.0 (20140413.2041)
 -->
<!-- Title: test01 Pages: 1 -->
<svg width="98pt" height="260pt"
 viewBox="0.00 0.00 98.00 260.00" xmlns="http://www.w3.org/2000/svg" xmlns:xlink="http://www.w3.org/1999/xlink">
<g id="graph0" class="graph" transform="scale(1 1) rotate(0) translate(4 256)">
<title>test01</title>
<polygon fill="white" stroke="none" points="-4,4 -4,-256 94,-256 94,4 -4,4"/>
<!-- 0 -->
<g id="node1" class="node"><title>0</title>
<ellipse fill="none" stroke="black" cx="72" cy="-234" rx="18" ry="18"/>
<text text-anchor="middle" x="72" y="-230.3" font-family="Times,serif" font-size="14.00">0</text>
</g>
<!-- 4 -->
<g id="node2" class="node"><title>4</title>
<ellipse fill="none" stroke="black" cx="18" cy="-162" rx="18" ry="18"/>
<text text-anchor="middle" x="18" y="-158.3" font-family="Times,serif" font-size="14.00">4</text>
</g>
<!-- 0&#45;&gt;4 -->
<g id="edge1" class="edge"><title>0&#45;&gt;4</title>
<path fill="none" stroke="black" d="M58.5,-222.062C49.8328,-212.87 38.9582,-199.385 30.5143,-187.621"/>
<polygon fill="black" stroke="black" points="33.1674,-185.303 24.6078,-179.059 27.4055,-189.278 33.1674,-185.303"/>
</g>
<!-- 0&#45;&gt;4 -->
<g id="edge2" class="edge"><title>0&#45;&gt;4</title>
<path fill="none" stroke="black" d="M65.5074,-217.116C58.6074,-206.599 48.0294,-192.761 38.4868,-181.71"/>
<polygon fill="black" stroke="black" points="41.0717,-179.351 31.7886,-174.244 35.8613,-184.025 41.0717,-179.351"/>
</g>
<!-- 3 -->
<g id="node3" class="node"><title>3</title>
<ellipse fill="none" stroke="black" cx="18" cy="-90" rx="18" ry="18"/>
<text text-anchor="middle" x="18" y="-86.3" font-family="Times,serif" font-size="14.00">3</text>
</g>
<!-- 4&#45;&gt;3 -->
<g id="edge3" class="edge"><title>4&#45;&gt;3</title>
<path fill="none" stroke="black" d="M7.08398,-147.503C4.47017,-138.11 3.83935,-125.343 5.19152,-114.321"/>
<polygon fill="black" stroke="black" points="8.63703,-114.937 7.09553,-104.455 1.76386,-113.611 8.63703,-114.937"/>
</g>
<!-- 4&#45;&gt;3 -->
<g id="edge4" class="edge"><title>4&#45;&gt;3</title>
<path fill="none" stroke="black" d="M18,-143.697C18,-135.983 18,-126.712 18,-118.112"/>
<polygon fill="black" stroke="black" points="21.5001,-118.104 18,-108.104 14.5001,-118.104 21.5001,-118.104"/>
</g>
<!-- 4&#45;&gt;3 -->
<g id="edge5" class="edge"><title>4&#45;&gt;3</title>
<path fill="none" stroke="black" d="M28.916,-147.503C31.5298,-138.11 32.1607,-125.343 30.8085,-114.321"/>
<polygon fill="black" stroke="black" points="34.2361,-113.611 28.9045,-104.455 27.363,-114.937 34.2361,-113.611"/>
</g>
<!-- 3&#45;&gt;0 -->
<g id="edge8" class="edge"><title>3&#45;&gt;0</title>
<path fill="none" stroke="black" d="M19.9216,-108.304C24.3121,-118.489 31.0621,-131.739 36,-144 44.6627,-165.51 52.1032,-190.895 58.5555,-209.039"/>
<polygon fill="black" stroke="black" points="55.3387,-210.428 62.1406,-218.551 61.8889,-207.959 55.3387,-210.428"/>
</g>
<!-- 3&#45;&gt;0 -->
<g id="edge9" class="edge"><title>3&#45;&gt;0</title>
<path fill="none" stroke="black" d="M31.3496,-102.103C39.2723,-112.645 47.982,-129.057 54,-144 62.1806,-164.313 69.2713,-188.082 72.7927,-205.944"/>
<polygon fill="black" stroke="black" points="69.3667,-206.677 74.4686,-215.963 76.2707,-205.523 69.3667,-206.677"/>
</g>
<!-- 1 -->
<g id="node5" class="node"><title>1</title>
<ellipse fill="none" stroke="black" cx="18" cy="-18" rx="18" ry="18"/>
<text text-anchor="middle" x="18" y="-14.3" font-family="Times,serif" font-size="14.00">1</text>
</g>
<!-- 3&#45;&gt;1 -->
<g id="edge7" class="edge"><title>3&#45;&gt;1</title>
<path fill="none" stroke="black" d="M18,-71.6966C18,-63.9827 18,-54.7125 18,-46.1124"/>
<polygon fill="black" stroke="black" points="21.5001,-46.1043 18,-36.1043 14.5001,-46.1044 21.5001,-46.1043"/>
</g>
<!-- 2 -->
<g id="node4" class="node"><title>2</title>
<ellipse fill="none" stroke="black" cx="18" cy="-234" rx="18" ry="18"/>
<text text-anchor="middle" x="18" y="-230.3" font-family="Times,serif" font-size="14.00">2</text>
</g>
<!-- 2&#45;&gt;4 -->
<g id="edge6" class="edge"><title>2&#45;&gt;4</title>
<path fill="none" stroke="black" d="M18,-215.697C18,-207.983 18,-198.712 18,-190.112"/>
<polygon fill="black" stroke="black" points="21.5001,-190.104 18,-180.104 14.5001,-190.104 21.5001,-190.104"/>
</g>
</g>
</svg>
