<?xml version="1.0" encoding="UTF-8" standalone="no"?>
<!DOCTYPE svg PUBLIC "-//W3C//DTD SVG 1.1//EN"
 "http://www.w3.org/Graphics/SVG/1.1/DTD/svg11.dtd">
<!-- Generated by graphviz version 2.38.0 (20140413.2041)
 -->
<!-- Title: test01 Pages: 1 -->
<svg width="267pt" height="464pt"
 viewBox="0.00 0.00 267.39 463.97" xmlns="http://www.w3.org/2000/svg" xmlns:xlink="http://www.w3.org/1999/xlink">
<g id="graph0" class="graph" transform="scale(1 1) rotate(0) translate(4 459.972)">
<title>test01</title>
<polygon fill="white" stroke="none" points="-4,4 -4,-459.972 263.394,-459.972 263.394,4 -4,4"/>
<!-- g_tim -->
<g id="node1" class="node"><title>g_tim</title>
<ellipse fill="none" stroke="black" cx="31.8472" cy="-131.542" rx="31.6951" ry="31.6951"/>
<text text-anchor="middle" x="31.8472" y="-127.842" font-family="Times,serif" font-size="14.00">g_tim</text>
</g>
<!-- _time -->
<g id="node2" class="node"><title>_time</title>
<ellipse fill="none" stroke="black" cx="31.8472" cy="-31.8472" rx="31.6951" ry="31.6951"/>
<text text-anchor="middle" x="31.8472" y="-28.1472" font-family="Times,serif" font-size="14.00">_time</text>
</g>
<!-- g_tim&#45;&gt;_time -->
<g id="edge1" class="edge"><title>g_tim&#45;&gt;_time</title>
<path fill="none" stroke="black" d="M31.8472,-99.6304C31.8472,-91.523 31.8472,-82.6501 31.8472,-74.0958"/>
<polygon fill="black" stroke="black" points="35.3473,-73.8925 31.8472,-63.8925 28.3473,-73.8925 35.3473,-73.8925"/>
</g>
<!-- ong_t -->
<g id="node3" class="node"><title>ong_t</title>
<ellipse fill="none" stroke="black" cx="81.8472" cy="-327.681" rx="31.3957" ry="31.3957"/>
<text text-anchor="middle" x="81.8472" y="-323.981" font-family="Times,serif" font-size="14.00">ong_t</text>
</g>
<!-- ng_ti -->
<g id="node4" class="node"><title>ng_ti</title>
<ellipse fill="none" stroke="black" cx="42.8472" cy="-229.936" rx="29.4969" ry="29.4969"/>
<text text-anchor="middle" x="42.8472" y="-226.236" font-family="Times,serif" font-size="14.00">ng_ti</text>
</g>
<!-- ong_t&#45;&gt;ng_ti -->
<g id="edge2" class="edge"><title>ong_t&#45;&gt;ng_ti</title>
<path fill="none" stroke="black" d="M70.3568,-298.472C66.297,-288.505 61.6765,-277.162 57.3967,-266.655"/>
<polygon fill="black" stroke="black" points="60.6018,-265.245 53.588,-257.304 54.119,-267.886 60.6018,-265.245"/>
</g>
<!-- ng_ti&#45;&gt;g_tim -->
<g id="edge8" class="edge"><title>ng_ti&#45;&gt;g_tim</title>
<path fill="none" stroke="black" d="M39.6359,-200.796C38.6592,-192.236 37.5652,-182.649 36.5129,-173.428"/>
<polygon fill="black" stroke="black" points="39.9623,-172.785 35.351,-163.246 33.0075,-173.579 39.9623,-172.785"/>
</g>
<!-- ng_lo -->
<g id="node5" class="node"><title>ng_lo</title>
<ellipse fill="none" stroke="black" cx="121.847" cy="-229.936" rx="30.5947" ry="30.5947"/>
<text text-anchor="middle" x="121.847" y="-226.236" font-family="Times,serif" font-size="14.00">ng_lo</text>
</g>
<!-- g_lon -->
<g id="node6" class="node"><title>g_lon</title>
<ellipse fill="none" stroke="black" cx="111.847" cy="-131.542" rx="30.5947" ry="30.5947"/>
<text text-anchor="middle" x="111.847" y="-127.842" font-family="Times,serif" font-size="14.00">g_lon</text>
</g>
<!-- ng_lo&#45;&gt;g_lon -->
<g id="edge3" class="edge"><title>ng_lo&#45;&gt;g_lon</title>
<path fill="none" stroke="black" d="M112.685,-200.536C111.255,-191.645 110.074,-181.666 109.302,-172.149"/>
<polygon fill="black" stroke="black" points="112.788,-171.823 108.633,-162.077 105.804,-172.287 112.788,-171.823"/>
</g>
<!-- ng_lo&#45;&gt;g_lon -->
<g id="edge4" class="edge"><title>ng_lo&#45;&gt;g_lon</title>
<path fill="none" stroke="black" d="M125.066,-199.491C124.612,-190.464 123.684,-180.398 122.446,-170.87"/>
<polygon fill="black" stroke="black" points="125.887,-170.211 120.989,-160.816 118.959,-171.214 125.887,-170.211"/>
</g>
<!-- _long -->
<g id="node7" class="node"><title>_long</title>
<ellipse fill="none" stroke="black" cx="228.847" cy="-31.8472" rx="30.5947" ry="30.5947"/>
<text text-anchor="middle" x="228.847" y="-28.1472" font-family="Times,serif" font-size="14.00">_long</text>
</g>
<!-- g_lon&#45;&gt;_long -->
<g id="edge5" class="edge"><title>g_lon&#45;&gt;_long</title>
<path fill="none" stroke="black" d="M132.364,-108.617C149.877,-92.8936 175.161,-71.758 195.529,-55.8044"/>
<polygon fill="black" stroke="black" points="197.867,-58.4206 203.634,-49.533 193.583,-52.8843 197.867,-58.4206"/>
</g>
<!-- g_lon&#45;&gt;_long -->
<g id="edge6" class="edge"><title>g_lon&#45;&gt;_long</title>
<path fill="none" stroke="black" d="M136.912,-113.969C155.733,-99.615 181.313,-78.531 200.792,-61.4554"/>
<polygon fill="black" stroke="black" points="203.302,-63.9074 208.462,-54.6539 198.658,-58.67 203.302,-63.9074"/>
</g>
<!-- long_ -->
<g id="node9" class="node"><title>long_</title>
<ellipse fill="none" stroke="black" cx="223.847" cy="-425.425" rx="30.5947" ry="30.5947"/>
<text text-anchor="middle" x="223.847" y="-421.725" font-family="Times,serif" font-size="14.00">long_</text>
</g>
<!-- _long&#45;&gt;long_ -->
<g id="edge12" class="edge"><title>_long&#45;&gt;long_</title>
<path fill="none" stroke="black" d="M213.514,-58.5553C212.209,-70.9813 212.644,-86.1115 212.847,-99.6943 214.39,-202.883 210.15,-324.494 214.183,-385.451"/>
<polygon fill="black" stroke="black" points="210.72,-386.066 215.001,-395.758 217.698,-385.512 210.72,-386.066"/>
</g>
<!-- _long&#45;&gt;long_ -->
<g id="edge13" class="edge"><title>_long&#45;&gt;long_</title>
<path fill="none" stroke="black" d="M229.924,-62.4595C230.296,-74.0686 230.665,-87.5046 230.847,-99.6943 232.386,-202.564 228.176,-323.741 225.63,-384.883"/>
<polygon fill="black" stroke="black" points="222.133,-384.737 225.206,-394.877 229.127,-385.034 222.133,-384.737"/>
</g>
<!-- _long&#45;&gt;long_ -->
<g id="edge14" class="edge"><title>_long&#45;&gt;long_</title>
<path fill="none" stroke="black" d="M245.853,-57.2905C248.179,-69.945 248.637,-85.6471 248.847,-99.6943 250.402,-203.63 246.088,-326.255 236.831,-386.765"/>
<polygon fill="black" stroke="black" points="233.379,-386.185 235.175,-396.627 240.283,-387.345 233.379,-386.185"/>
</g>
<!-- a_lon -->
<g id="node8" class="node"><title>a_lon</title>
<ellipse fill="none" stroke="black" cx="190.847" cy="-131.542" rx="30.5947" ry="30.5947"/>
<text text-anchor="middle" x="190.847" y="-127.842" font-family="Times,serif" font-size="14.00">a_lon</text>
</g>
<!-- a_lon&#45;&gt;_long -->
<g id="edge7" class="edge"><title>a_lon&#45;&gt;_long</title>
<path fill="none" stroke="black" d="M201.635,-102.808C205.566,-92.7011 210.078,-81.1014 214.283,-70.291"/>
<polygon fill="black" stroke="black" points="217.669,-71.2391 218.033,-60.6505 211.145,-68.7015 217.669,-71.2391"/>
</g>
<!-- long_&#45;&gt;ong_t -->
<g id="edge11" class="edge"><title>long_&#45;&gt;ong_t</title>
<path fill="none" stroke="black" d="M198.787,-407.528C175.854,-392.065 141.713,-369.046 116.234,-351.866"/>
<polygon fill="black" stroke="black" points="117.863,-348.743 107.615,-346.055 113.95,-354.547 117.863,-348.743"/>
</g>
<!-- ong_l -->
<g id="node10" class="node"><title>ong_l</title>
<ellipse fill="none" stroke="black" cx="180.847" cy="-327.681" rx="30.5947" ry="30.5947"/>
<text text-anchor="middle" x="180.847" y="-323.981" font-family="Times,serif" font-size="14.00">ong_l</text>
</g>
<!-- long_&#45;&gt;ong_l -->
<g id="edge9" class="edge"><title>long_&#45;&gt;ong_l</title>
<path fill="none" stroke="black" d="M206.785,-399.768C201.612,-389.826 196.141,-378.122 191.475,-367.111"/>
<polygon fill="black" stroke="black" points="194.639,-365.602 187.609,-357.675 188.161,-368.255 194.639,-365.602"/>
</g>
<!-- long_&#45;&gt;ong_l -->
<g id="edge10" class="edge"><title>long_&#45;&gt;ong_l</title>
<path fill="none" stroke="black" d="M217.089,-395.439C212.991,-385.052 207.767,-373.252 202.517,-362.492"/>
<polygon fill="black" stroke="black" points="205.546,-360.726 197.924,-353.366 199.293,-363.872 205.546,-360.726"/>
</g>
<!-- ong_l&#45;&gt;ng_lo -->
<g id="edge15" class="edge"><title>ong_l&#45;&gt;ng_lo</title>
<path fill="none" stroke="black" d="M161.025,-303.99C153.406,-293.044 144.903,-279.642 137.693,-267.319"/>
<polygon fill="black" stroke="black" points="140.704,-265.533 132.703,-258.587 134.626,-269.006 140.704,-265.533"/>
</g>
<!-- ong_l&#45;&gt;ng_lo -->
<g id="edge16" class="edge"><title>ong_l&#45;&gt;ng_lo</title>
<path fill="none" stroke="black" d="M169.968,-298.987C163.483,-287.344 155.163,-273.75 147.214,-261.787"/>
<polygon fill="black" stroke="black" points="150.04,-259.718 141.523,-253.416 144.251,-263.654 150.04,-259.718"/>
</g>
</g>
</svg>
